<?xml version="1.0" standalone="no"?>
<!DOCTYPE svg PUBLIC "-//W3C//DTD SVG 20010904//EN"
 "http://www.w3.org/TR/2001/REC-SVG-20010904/DTD/svg10.dtd">
<svg version="1.0" xmlns="http://www.w3.org/2000/svg"
 width="30.000000pt" height="30.000000pt" viewBox="0 0 30.000000 30.000000"
 preserveAspectRatio="xMidYMid meet">

<g transform="translate(0.000000,30.000000) scale(0.100000,-0.100000)"
fill="#000000" stroke="none">
<path d="M210 260 c-12 -7 -11 -13 10 -34 13 -15 27 -26 31 -26 16 0 18 34 3
51 -19 22 -23 22 -44 9z"/>
<path d="M117 172 l-58 -58 27 -27 26 -27 58 63 58 62 -20 23 c-12 12 -24 22
-28 22 -3 0 -32 -26 -63 -58z"/>
<path d="M35 49 c-4 -6 -5 -13 -2 -16 7 -7 27 6 27 18 0 12 -17 12 -25 -2z"/>
</g>
</svg>
